<svg xmlns="http://www.w3.org/2000/svg" width="128" height="128" viewBox="0 0 128 128"><g transform="translate(-74 -336)"><rect width="128" height="128" transform="translate(74 336)" fill="none"/><g transform="translate(252.302 524.164)"><path d="M-147.025-119.941c-1.584,0-3.169.043-4.751-.018a1.386,1.386,0,0,0-1.519.947,12.257,12.257,0,0,1-14.651,6.971,12.581,12.581,0,0,1-9.1-13.064,12.55,12.55,0,0,1,10.286-11.542,12.349,12.349,0,0,1,13.431,7.111,1.173,1.173,0,0,0,1.222.778c3.352-.02,6.7-.03,10.057.007a1.03,1.03,0,0,0,1.221-.99,27.932,27.932,0,0,1,11.2-17.544,26.769,26.769,0,0,1,10.97-4.763c1.186-.231,1.188-.222,1.188-1.477,0-2.807-.032-5.615.019-8.421a1.585,1.585,0,0,0-1.04-1.7,12.216,12.216,0,0,1-7.182-11.627,12.234,12.234,0,0,1,6.74-11.441c7.6-4.112,16.992.977,18.052,9.7a12.863,12.863,0,0,1-7.186,13.429,1.309,1.309,0,0,0-.817,1.375c.024,2.94.009,5.881.011,8.822,0,1.123.022,1.141,1.1,1.342a29.743,29.743,0,0,1,13.445,6.1c.516.415.988.885,1.495,1.313.354.3.419.555.05.914q-2.368,2.305-4.7,4.645c-.34.34-.584.2-.883-.04-.763-.616-1.514-1.252-2.317-1.811-10.194-7.1-25.2-3.452-31.088,7.554A20.434,20.434,0,0,0-125.353-107c5.772,4.019,12.079,5.2,18.828,2.917a21.59,21.59,0,0,0,7.958-5.122c.692-.665.722-.672,1.355.056,1.186,1.364,2.346,2.752,3.569,4.081.528.574.557.94-.033,1.5A27.87,27.87,0,0,1-107.5-96.2c-1.367.283-1.369.275-1.369,1.667,0,2.994.017,5.989-.012,8.982a1.35,1.35,0,0,0,.892,1.409,12.6,12.6,0,0,1,6.939,13.436,12.6,12.6,0,0,1-10.784,10.443,12.445,12.445,0,0,1-13.5-8.978,12.556,12.556,0,0,1,6.68-14.934,1.753,1.753,0,0,0,1.21-1.913c-.071-2.912-.049-5.828-.01-8.741.011-.784-.209-1.12-1.009-1.277a28.071,28.071,0,0,1-22.483-22.926c-.123-.677-.381-.945-1.093-.922-1.661.052-3.326.017-4.989.017Zm38.547-55.455a4.842,4.842,0,0,0-4.514-4.873,4.851,4.851,0,0,0-4.755,4.891,4.91,4.91,0,0,0,4.522,5.125C-110.634-170.164-108.571-172.4-108.478-175.4Zm-60.656,51.147a4.859,4.859,0,0,0,4.6,4.948,4.919,4.919,0,0,0,4.718-4.938,4.878,4.878,0,0,0-4.491-4.881A4.815,4.815,0,0,0-169.134-124.249ZM-108.621-72.8a4.772,4.772,0,0,0-4.554-4.886,4.847,4.847,0,0,0-4.713,4.84,4.875,4.875,0,0,0,4.584,4.977A4.784,4.784,0,0,0-108.621-72.8Z" transform="translate(0 0)" fill="#002050"/><path d="M238.284,144.217a12.676,12.676,0,0,1-8.5,12.134,11.71,11.71,0,0,1-14.266-6.756,1.28,1.28,0,0,0-1.4-.931q-13.106.028-26.211-.025a1.69,1.69,0,0,0-1.811,1.152,11.658,11.658,0,0,1-15.541,6.051,12.747,12.747,0,0,1-7.014-12.456c.459-5.221,2.962-9.051,7.848-10.977a11.559,11.559,0,0,1,14.823,6.56,1.6,1.6,0,0,0,1.759,1.177q12.908-.048,25.816,0a1.592,1.592,0,0,0,1.713-1.14,11.711,11.711,0,0,1,12.277-7.284,12.322,12.322,0,0,1,10.278,10.346C238.171,142.78,238.212,143.5,238.284,144.217Zm-58.318.037a4.78,4.78,0,0,0-3.255-4.711,4.394,4.394,0,0,0-5.4,3.312,4.96,4.96,0,0,0,3.24,6.18C177.335,149.761,179.95,147.454,179.967,144.254Zm42.044-.172c.019,2.745,1.742,4.811,4.015,5.066a4.486,4.486,0,0,0,4.7-3.678,4.983,4.983,0,0,0-2.243-5.528,3.841,3.841,0,0,0-4.142.012A4.811,4.811,0,0,0,222.01,144.082Z" transform="translate(-288.587 -268.488)" fill="#002050"/></g></g></svg>