<svg width="140" height="26" viewBox="0 0 140 26" fill="none" xmlns="http://www.w3.org/2000/svg">
<path d="M32.9794 20.6716C32.6011 21.0189 32.1791 21.3085 31.7353 21.5643C30.7093 22.1573 29.6013 22.5013 28.4164 22.5944C27.5296 22.6642 26.6403 22.6394 25.7519 22.641C23.6552 22.645 21.5576 22.6466 19.4607 22.6345C18.9197 22.6313 18.3779 22.6402 17.8377 22.5936C16.4828 22.4773 15.2712 22.0192 14.2637 21.0999C13.2068 20.1357 12.482 18.9678 12.2204 17.5584C11.8519 15.5722 12.3232 13.7954 13.6822 12.2721C14.42 11.445 15.2995 10.8097 16.3605 10.4431C17.2319 10.1423 18.1268 10.0653 19.0412 10.1744C19.8835 10.2755 20.6926 10.4872 21.4465 10.8795C22.5374 11.4466 23.3426 12.2993 23.9394 13.355C24.0835 13.6101 24.2318 13.8644 24.2966 14.1563C24.4294 14.7588 24.1207 15.3395 23.5418 15.573C22.9853 15.7976 22.3205 15.5842 22.0118 15.0788C21.9689 15.009 21.93 14.9328 21.909 14.855C21.7316 14.2045 21.3266 13.7192 20.785 13.3333C20.0884 12.8376 19.3263 12.5159 18.4557 12.5247C16.6472 12.5424 15.0201 13.7047 14.6176 15.6283C14.173 17.7541 15.6518 19.8389 17.8248 20.1742C18.0774 20.2135 18.3326 20.2135 18.5861 20.2143C20.0301 20.2191 21.475 20.2304 22.9189 20.2127C24.5525 20.1927 26.1859 20.2054 27.8204 20.2022C29.0911 20.2 30.1998 19.7804 31.1879 19.0111C31.2931 18.9293 31.3969 18.845 31.5013 18.7624C31.566 18.7768 31.5993 18.829 31.635 18.8755C32.0527 19.4242 32.478 19.9665 32.896 20.5144C32.9332 20.564 32.9794 20.6057 32.9794 20.6716Z" fill="#40AEEB"/>
<path d="M32.9794 20.6717C32.4869 20.0363 31.9945 19.4002 31.502 18.7649C31.8431 18.4352 32.1717 18.0959 32.4391 17.7012C32.9275 16.98 33.2028 16.1835 33.3137 15.326C33.4142 14.5503 33.3947 13.7826 33.1873 13.0245C32.9079 12.0058 32.341 11.1619 31.5724 10.4432C30.9772 9.88645 30.3067 9.44846 29.5276 9.18374C28.6998 8.90298 27.8502 8.83238 26.9846 8.93666C26.7553 8.96395 26.5269 9.00084 26.297 9.01609C25.9486 9.03935 25.6888 8.87811 25.5146 8.59014C25.2822 8.2051 25.0433 7.82487 24.7775 7.46067C24.7735 7.39249 24.8311 7.36763 24.8724 7.33555C25.1947 7.08365 25.5567 6.89996 25.9348 6.74754C26.2484 6.62081 26.5748 6.53338 26.9052 6.46197C26.9691 6.44834 27.0322 6.4379 27.0955 6.46519C27.4325 6.49004 27.77 6.47241 28.1078 6.49166C30.0208 6.60076 31.6882 7.29062 33.1177 8.55003C34.5877 9.84473 35.4599 11.4747 35.7385 13.3863C36.0876 15.7744 35.4454 17.9114 33.8936 19.7748C33.6199 20.1021 33.3178 20.406 32.9794 20.6717Z" fill="#F1C40F"/>
<path d="M27.0941 6.46357C26.2437 6.61921 25.4483 6.90076 24.7754 7.45988C24.3859 6.9874 23.9687 6.53978 23.4836 6.16036C22.1902 5.15043 20.7381 4.5175 19.0827 4.43249C15.8002 4.26403 13.292 5.58439 11.554 8.34547C11.5419 8.36472 11.5273 8.38237 11.5135 8.40081C11.3435 8.37193 11.2195 8.25402 11.0754 8.17621C10.5263 7.8794 9.95532 7.63875 9.34628 7.49116C9.29201 7.47832 9.22317 7.48314 9.19727 7.41255C9.29932 7.40774 9.3309 7.32671 9.3722 7.25613C9.90752 6.33202 10.553 5.49135 11.3451 4.76779C12.8879 3.35758 14.6858 2.42946 16.7648 2.12784C20.4441 1.5928 23.5864 2.67011 26.1546 5.34856C26.4291 5.63494 26.6745 5.94537 26.903 6.26946C26.9555 6.34486 27.0139 6.41385 27.0941 6.46357Z" fill="#00C3B6"/>
<path d="M9.19762 7.41326C9.78802 7.55445 10.3549 7.76061 10.8927 8.03976C11.1057 8.15047 11.3163 8.26437 11.5139 8.40154C11.2896 8.82831 11.0928 9.26627 10.9008 9.70827C10.7413 10.0757 10.389 10.2297 9.99536 10.1318C9.62849 10.0404 9.277 9.89679 8.90606 9.81417C5.71107 9.10584 3.09273 11.2725 2.53391 13.7713C2.40838 14.3344 2.06418 14.6577 1.49887 14.7579C0.73434 14.8935 -0.0148015 14.1563 0.131788 13.3999C0.372322 12.1565 0.903606 11.0431 1.72888 10.0749C2.78902 8.8307 4.08888 7.9435 5.69327 7.5328C6.74368 7.26407 7.80867 7.19107 8.885 7.35151C8.99029 7.36674 9.09397 7.39242 9.19762 7.41326Z" fill="#FF574D"/>
<path d="M47.6742 21.3863C46.1834 21.3863 44.9035 21.1327 43.8344 20.6256C42.7652 20.1036 41.8919 19.425 41.2142 18.5898C40.5366 17.7396 40.0322 16.8298 39.7009 15.8604C39.3847 14.876 39.2266 13.9215 39.2266 12.9968V12.5046C39.2266 11.4904 39.3922 10.4911 39.7235 9.50671C40.0548 8.50742 40.5592 7.60508 41.2368 6.79968C41.9295 5.99429 42.7953 5.35296 43.8344 4.87568C44.8884 4.3835 46.1307 4.13741 47.5612 4.13741C49.052 4.13741 50.3696 4.41333 51.514 4.96517C52.6584 5.51702 53.5694 6.28513 54.2471 7.2695C54.9397 8.23896 55.3463 9.37993 55.4668 10.6924H51.7399C51.6345 10.0362 51.3935 9.47688 51.0171 9.01452C50.6406 8.55217 50.1512 8.19421 49.5489 7.94066C48.9617 7.68711 48.2991 7.56034 47.5612 7.56034C46.8234 7.56034 46.1684 7.68711 45.5962 7.94066C45.0239 8.19421 44.5421 8.55217 44.1506 9.01452C43.7741 9.47688 43.4805 10.0287 43.2697 10.6701C43.0739 11.2965 42.976 11.9975 42.976 12.773C42.976 13.5337 43.0739 14.2347 43.2697 14.876C43.4805 15.5024 43.7817 16.0543 44.1732 16.5315C44.5797 16.9939 45.0767 17.3519 45.6639 17.6054C46.2512 17.844 46.9213 17.9634 47.6742 17.9634C48.8186 17.9634 49.7823 17.6874 50.5653 17.1356C51.3634 16.5837 51.8453 15.8231 52.0109 14.8536H55.7152C55.5797 16.0468 55.1731 17.143 54.4955 18.1423C53.833 19.1267 52.9219 19.9172 51.7625 20.5138C50.618 21.0955 49.2553 21.3863 47.6742 21.3863ZM57.45 20.9612V4.62959H61.0865V20.9612H57.45ZM55.9818 7.2695V4.62959H61.0865V7.2695H55.9818ZM69.7698 21.3863C68.6856 21.3863 67.7219 21.2222 66.8786 20.8941C66.0353 20.5511 65.3201 20.0887 64.7328 19.507C64.1606 18.9254 63.7239 18.2617 63.4228 17.5159C63.1216 16.7553 62.971 15.9573 62.971 15.1221V14.6075C62.971 13.7574 63.1216 12.952 63.4228 12.1914C63.739 11.4158 64.1907 10.7372 64.778 10.1555C65.3803 9.57382 66.1031 9.11893 66.9464 8.7908C67.7896 8.44776 68.7308 8.27624 69.7698 8.27624C70.8389 8.27624 71.7876 8.44776 72.6157 8.7908C73.459 9.11893 74.1743 9.57382 74.7615 10.1555C75.3488 10.7372 75.8005 11.4158 76.1168 12.1914C76.433 12.952 76.5911 13.7574 76.5911 14.6075V15.1221C76.5911 15.9573 76.4405 16.7553 76.1394 17.5159C75.8382 18.2617 75.394 18.9254 74.8067 19.507C74.2345 20.0887 73.5268 20.5511 72.6835 20.8941C71.8403 21.2222 70.869 21.3863 69.7698 21.3863ZM69.7698 18.3661C70.4775 18.3661 71.0648 18.2169 71.5316 17.9186C71.9984 17.6203 72.3522 17.2027 72.5932 16.6658C72.8492 16.1288 72.9771 15.5323 72.9771 14.876C72.9771 14.175 72.8492 13.5635 72.5932 13.0415C72.3372 12.5046 71.9683 12.0795 71.4864 11.7663C71.0196 11.4531 70.4474 11.2965 69.7698 11.2965C69.1072 11.2965 68.535 11.4531 68.0531 11.7663C67.5713 12.0795 67.2024 12.5046 66.9464 13.0415C66.7054 13.5635 66.585 14.175 66.585 14.876C66.585 15.5323 66.7054 16.1288 66.9464 16.6658C67.1873 17.2027 67.5487 17.6203 68.0305 17.9186C68.5124 18.2169 69.0921 18.3661 69.7698 18.3661ZM82.6144 21.3415C81.1838 21.3415 80.0846 20.8866 79.3166 19.9768C78.5487 19.0521 78.1647 17.6651 78.1647 15.8156V8.70131H81.7786V15.9946C81.7786 16.6509 81.9669 17.1729 82.3433 17.5607C82.7198 17.9484 83.2242 18.1423 83.8567 18.1423C84.5042 18.1423 85.0312 17.941 85.4378 17.5383C85.8443 17.1356 86.0476 16.5912 86.0476 15.9051V8.70131H89.6616V20.9612H86.793V15.7933H87.0414C87.0414 17.0312 86.8758 18.0678 86.5445 18.903C86.2283 19.7233 85.754 20.3348 85.1215 20.7375C84.4891 21.1402 83.7061 21.3415 82.7725 21.3415H82.6144ZM97.421 21.3639C96.5476 21.3639 95.7495 21.2073 95.0267 20.8941C94.319 20.5809 93.7016 20.1484 93.1746 19.5965C92.6476 19.0298 92.241 18.3661 91.9549 17.6054C91.6838 16.8448 91.5483 16.0244 91.5483 15.1445V14.6299C91.5483 13.7499 91.6763 12.9296 91.9323 12.169C92.2033 11.4083 92.5873 10.7446 93.0842 10.1779C93.5962 9.5962 94.2061 9.14875 94.9138 8.83555C95.6215 8.50742 96.4121 8.34336 97.2855 8.34336C98.2793 8.34336 99.1376 8.55962 99.8604 8.99215C100.583 9.40976 101.148 10.0362 101.554 10.8714C101.961 11.6917 102.187 12.7059 102.232 13.914L101.283 13.0415V4.62959H104.92V20.9612H102.051V15.8828H102.548C102.503 17.0461 102.255 18.0379 101.803 18.8582C101.366 19.6786 100.771 20.305 100.019 20.7375C99.2656 21.1551 98.3998 21.3639 97.421 21.3639ZM98.3245 18.3661C98.8816 18.3661 99.3861 18.2467 99.8378 18.0081C100.305 17.7546 100.674 17.3891 100.945 16.9119C101.231 16.4346 101.374 15.8604 101.374 15.1892V14.3615C101.374 13.7052 101.231 13.1534 100.945 12.7059C100.658 12.2585 100.282 11.9154 99.8152 11.6768C99.3484 11.4382 98.844 11.3188 98.3019 11.3188C97.6996 11.3188 97.1575 11.4755 96.6756 11.7887C96.2088 12.087 95.8399 12.5046 95.5688 13.0415C95.2978 13.5635 95.1623 14.175 95.1623 14.876C95.1623 15.5919 95.2978 16.2109 95.5688 16.7329C95.8399 17.2549 96.2163 17.6576 96.6982 17.941C97.1801 18.2244 97.7221 18.3661 98.3245 18.3661ZM108.108 20.9612V8.70131H111.722V20.9612H108.108ZM106.459 11.3412V8.70131H111.722V11.3412H106.459ZM109.508 7.49322C108.83 7.49322 108.326 7.3217 107.995 6.97866C107.678 6.62071 107.52 6.17327 107.52 5.63634C107.52 5.08449 107.678 4.63705 107.995 4.29401C108.326 3.93606 108.83 3.75708 109.508 3.75708C110.186 3.75708 110.683 3.93606 110.999 4.29401C111.33 4.63705 111.496 5.08449 111.496 5.63634C111.496 6.17327 111.33 6.62071 110.999 6.97866C110.683 7.3217 110.186 7.49322 109.508 7.49322ZM114.657 20.9612V8.58945C114.657 7.17255 115.064 6.12106 115.877 5.43499C116.69 4.74891 117.887 4.40587 119.469 4.40587H121.05V7.09052H119.31C118.904 7.09052 118.588 7.20238 118.362 7.4261C118.136 7.64982 118.023 7.96303 118.023 8.36573V20.9612H114.657ZM113.189 11.5649V8.94741H121.23V11.5649H113.189ZM122.595 25.816V22.7734H125.17C125.561 22.7734 125.893 22.7212 126.164 22.6168C126.435 22.5273 126.653 22.3707 126.819 22.1469C126.984 21.9232 127.12 21.6175 127.225 21.2297L130.275 8.70131H133.708L130.252 21.9456C130.011 22.9001 129.672 23.6608 129.236 24.2275C128.814 24.7943 128.242 25.197 127.519 25.4356C126.811 25.6892 125.908 25.816 124.808 25.816H122.595ZM126.48 20.6928V17.8962H129.1V20.6928H126.48ZM124.989 20.6928L121.195 8.70131H124.831L128.422 20.6928H124.989Z" fill="white"/>
</svg>
