<svg width="16" height="16" viewBox="0 0 16 16" fill="none" xmlns="http://www.w3.org/2000/svg">
<path d="M9.35375 3.14628L13.8537 7.64628C13.9002 7.69271 13.9371 7.74786 13.9623 7.80856C13.9874 7.86926 14.0004 7.93432 14.0004 8.00003C14.0004 8.06573 13.9874 8.1308 13.9623 8.1915C13.9371 8.2522 13.9002 8.30734 13.8538 8.35378L9.35375 12.8538C9.25993 12.9476 9.13268 13.0003 9 13.0003C8.86732 13.0003 8.74007 12.9476 8.64625 12.8538C8.55243 12.76 8.49972 12.6327 8.49972 12.5C8.49972 12.3673 8.55243 12.2401 8.64625 12.1463L12.2931 8.50003L2.5 8.50003C2.36739 8.50003 2.24021 8.44735 2.14645 8.35358C2.05268 8.25981 2 8.13264 2 8.00003C2 7.86742 2.05268 7.74024 2.14645 7.64647C2.24021 7.55271 2.36739 7.50003 2.5 7.50003L12.2931 7.50003L8.64625 3.85378C8.55243 3.75996 8.49972 3.63271 8.49972 3.50003C8.49972 3.36734 8.55243 3.2401 8.64625 3.14628C8.74007 3.05246 8.86732 2.99975 9 2.99975C9.13268 2.99975 9.25993 3.05246 9.35375 3.14628Z" fill="black"/>
</svg>
