<svg xmlns="http://www.w3.org/2000/svg" width="128" height="128" viewBox="0 0 128 128"><g transform="translate(-60 -368)"><rect width="128" height="128" transform="translate(60 368)" fill="none"/><g transform="translate(60.446 368)"><rect width="128" height="128" rx="15" transform="translate(-0.446 0)" fill="#46ad35"/><g transform="translate(-1186.312 -167.737)"><g transform="translate(1204.955 259.683)"><path d="M1402.183,365.35c-.262-.491-.709-.967-.749-1.475-.105-1.361-.035-2.736-.036-4.105a1.3,1.3,0,0,1,1.338-1.437,5.323,5.323,0,0,1,4.428,1.281c.974.9,2.012,1.733,3.28,2.816,0-1.151.034-2.043-.01-2.931-.043-.849.278-1.259,1.152-1.19a5.293,5.293,0,0,0,.888,0c.967-.087,1.332.347,1.281,1.3-.1,1.911-.146,3.826-.214,5.739h-3.786l-5.363-4.927-.384.2c0,.645.029,1.292-.008,1.934-.043.757.257,1.008,1.026,1.052a2.631,2.631,0,0,1,2.279,1.739Z" transform="translate(-1350.517 -358.227)" fill="#fff"/><path d="M1290.692,365.482c-.034-1.887-.1-3.775-.085-5.662a1.357,1.357,0,0,1,1.5-1.343c2.93-.036,5.861-.017,8.791.02.9.011,1.327.56,1.309,1.456-.006.3,0,.594,0,.891-.01,1.441-.206,1.663-1.615,1.844-.213.027-.424.066-.708.11l2.833,2.686h-3.786a15.688,15.688,0,0,0-2.476-2.266,4.813,4.813,0,0,0-2.469-.362c-.13,0-.262.992-.349,1.532a9.128,9.128,0,0,0-.051,1.1Zm5.68-5.343a19.6,19.6,0,0,0-2,.023c-.259.026-.491.306-.735.471.233.182.46.512.7.521,1.333.05,2.669.05,4,0,.235-.009.457-.348.685-.535-.254-.159-.5-.426-.763-.455A17.423,17.423,0,0,0,1296.371,360.139Z" transform="translate(-1264.413 -358.358)" fill="#fff"/><path d="M1463.8,365.48a2.229,2.229,0,0,1-.909-2.1c.064-1.073.038-2.152.01-3.228a1.429,1.429,0,0,1,1.519-1.663q4.34-.066,8.681.008a1.341,1.341,0,0,1,1.423,1.6,34.621,34.621,0,0,0,.008,3.561,1.784,1.784,0,0,1-.934,1.828Zm4.95-1.839c2.828-.036,2.576.413,2.591-2.375,0-.742-.341-1.094-1.065-1.1q-1.495-.005-2.989,0c-.7,0-1.058.3-1.1,1.063-.123,2.409-.146,2.408,2.228,2.408Z" transform="translate(-1398.329 -358.356)" fill="#fff"/><path d="M1231.76,365.556a1.977,1.977,0,0,1-.922-1.956c.069-1.142.049-2.292.008-3.437-.034-.956.41-1.555,1.317-1.571q4.486-.081,8.975,0a1.308,1.308,0,0,1,1.336,1.467c.005,1.331.087,2.67-.039,3.988-.051.527-.57,1.01-.875,1.513Zm4.85-1.839c2.837,0,2.859-.032,2.66-2.438-.056-.681-.367-1.022-1.033-1.03q-1.551-.018-3.1,0c-.73.008-1.028.388-1.036,1.123-.025,2.347-.041,2.346,2.289,2.346Z" transform="translate(-1217.952 -358.433)" fill="#fff"/><path d="M1519.6,365.137a10.678,10.678,0,0,1,.813-1.606c1.688-2.3,1.777-1.5.031-3.815-.322-.427-.625-.866-.959-1.33,1.851-.7,3.146-.412,4.293.866,1.73,1.928,1.825,2,3.416.015,1.219-1.523,2.672-1.248,4.208-1.033v.668c-.639.744-1.308,1.465-1.895,2.247a.939.939,0,0,0-.019.881c.592.775,1.269,1.484,1.914,2.217v.891h-3.118c-.69-.813-1.375-1.631-2.073-2.438a.818.818,0,0,0-1.406.007c-.7.807-1.393,1.621-2.089,2.432Z" transform="translate(-1442.323 -358.013)" fill="#fff"/><path d="M1173,359.339a2.531,2.531,0,0,1,2.284-1.049c2.78.021,5.561.012,8.342,0,.592,0,1.1-.017,1.113.83.018.909-.512.9-1.153.89-1.965-.016-3.931-.039-5.894.016a6,6,0,0,0-1.532.465,5.93,5.93,0,0,0,1.595.527c1.926.065,3.855.017,5.783.031.52,0,1.176-.186,1.188.726.012.963-.666.8-1.239.8-2.039.008-4.079.044-6.117-.015-.975-.028-1.343.3-1.266,1.278a6.837,6.837,0,0,1-.208,1.5H1173Z" transform="translate(-1173 -358.229)" fill="#fff"/><path d="M1351.531,365.366c-.084-1.683-.168-3.366-.26-5.2-1,0-1.981-.021-2.966.007-.666.019-.925-.253-.919-.919.005-.633.182-.949.886-.944q4.66.035,9.321,0c.677,0,.9.255.9.92s-.2.986-.881.936c-.11-.008-.222,0-.333,0-2.832.04-2.816.041-2.843,2.929-.007.758-.149,1.514-.229,2.271Z" transform="translate(-1308.55 -358.243)" fill="#fff"/></g><path d="M1292.086,214.157c-7.62-.411-12.117,2.429-13.962,8.624a12.612,12.612,0,0,0,12.36,16.428c14.316-.02,28.632-.216,42.948-.334,2.694-.023,5.393-.151,8.078-.012a6.568,6.568,0,0,0,6.5-3.566,7.5,7.5,0,0,0-.234-7.892c-2.445-3.995-5.36-4.768-10.087-2.747-.043-.128-.157-.287-.117-.378,1.683-3.829,1.088-7.159-2.137-9.931-3.533-3.038-7.429-4.352-11.943-2.394-4.541,1.969-7.7,5.442-10.188,9.6-.388.648-.761,1.305-1.274,2.188.366-11.773,14.129-20.687,24.275-16.01a15.239,15.239,0,0,1,7.912,8.492,3.283,3.283,0,0,0,2.84,2.295,12.268,12.268,0,0,1,5.429,2.527c7.378,6.321,5.874,19.246-2.716,23.682a12.422,12.422,0,0,1-5.258,1.376q-17.962.369-35.928.43c-8.006.015-16.014-.182-24.018-.4a15.384,15.384,0,0,1-13.032-7.584,19.914,19.914,0,0,1-.951-20.979,15.68,15.68,0,0,1,12.225-8.538c1.172-.177,2.03-.461,2.153-1.822,1.048-11.583,12.609-18.456,23.938-18.369,11.226.087,18.545,8.382,21.038,16.508-6.858-8.866-15.408-12.919-26.156-9.455C1295.281,198.637,1292.437,205.7,1292.086,214.157Z" transform="translate(-63.183 7.893)" fill="#fff"/></g></g></g></svg>